<svg width="632" height="300" viewBox="0 0 632 300" fill="none" xmlns="http://www.w3.org/2000/svg">
<ellipse cx="116.682" cy="155.021" rx="70.6856" ry="138.762" transform="rotate(21.5326 116.682 155.021)" fill="#ECB900"/>
<path d="M68.896 195.872L69.92 179.488C70.432 179.573 70.944 179.659 71.456 179.744C71.968 179.744 72.4373 179.744 72.864 179.744C75.2533 179.744 77.1307 179.061 78.496 177.696C79.8613 176.331 80.8853 174.496 81.568 172.192C82.2507 169.803 82.72 167.115 82.976 164.128C83.3173 161.141 83.5733 158.027 83.744 154.784L84.768 127.136H143.648V196H123.68V138.656L128.16 143.52H97.952L102.176 138.4L101.28 155.68C101.024 161.824 100.512 167.456 99.744 172.576C99.0613 177.696 97.9093 182.133 96.288 185.888C94.6667 189.557 92.4907 192.416 89.76 194.464C87.0293 196.427 83.5307 197.408 79.264 197.408C77.728 197.408 76.1067 197.28 74.4 197.024C72.6933 196.768 70.8587 196.384 68.896 195.872ZM195.106 197.024C187.767 197.024 181.239 195.488 175.522 192.416C169.89 189.344 165.41 185.163 162.082 179.872C158.839 174.496 157.218 168.395 157.218 161.568C157.218 154.656 158.839 148.555 162.082 143.264C165.41 137.888 169.89 133.707 175.522 130.72C181.239 127.648 187.767 126.112 195.106 126.112C202.359 126.112 208.845 127.648 214.562 130.72C220.279 133.707 224.759 137.845 228.002 143.136C231.245 148.427 232.866 154.571 232.866 161.568C232.866 168.395 231.245 174.496 228.002 179.872C224.759 185.163 220.279 189.344 214.562 192.416C208.845 195.488 202.359 197.024 195.106 197.024ZM195.106 180.64C198.434 180.64 201.421 179.872 204.066 178.336C206.711 176.8 208.802 174.624 210.338 171.808C211.874 168.907 212.642 165.493 212.642 161.568C212.642 157.557 211.874 154.144 210.338 151.328C208.802 148.512 206.711 146.336 204.066 144.8C201.421 143.264 198.434 142.496 195.106 142.496C191.778 142.496 188.791 143.264 186.146 144.8C183.501 146.336 181.367 148.512 179.746 151.328C178.21 154.144 177.442 157.557 177.442 161.568C177.442 165.493 178.21 168.907 179.746 171.808C181.367 174.624 183.501 176.8 186.146 178.336C188.791 179.872 191.778 180.64 195.106 180.64ZM258.82 196V138.912L263.3 143.52H235.524V127.136H301.956V143.52H274.18L278.66 138.912V196H258.82ZM343.389 197.024C335.538 197.024 328.626 195.488 322.653 192.416C316.765 189.344 312.2 185.163 308.957 179.872C305.714 174.496 304.093 168.395 304.093 161.568C304.093 154.656 305.672 148.555 308.829 143.264C312.072 137.888 316.466 133.707 322.013 130.72C327.56 127.648 333.832 126.112 340.829 126.112C347.57 126.112 353.629 127.563 359.005 130.464C364.466 133.28 368.776 137.376 371.933 142.752C375.09 148.043 376.669 154.4 376.669 161.824C376.669 162.592 376.626 163.488 376.541 164.512C376.456 165.451 376.37 166.347 376.285 167.2H320.349V155.552H365.789L358.109 159.008C358.109 155.424 357.384 152.309 355.933 149.664C354.482 147.019 352.477 144.971 349.917 143.52C347.357 141.984 344.37 141.216 340.957 141.216C337.544 141.216 334.514 141.984 331.869 143.52C329.309 144.971 327.304 147.061 325.853 149.792C324.402 152.437 323.677 155.595 323.677 159.264V162.336C323.677 166.091 324.488 169.419 326.109 172.32C327.816 175.136 330.162 177.312 333.149 178.848C336.221 180.299 339.805 181.024 343.901 181.024C347.57 181.024 350.77 180.469 353.501 179.36C356.317 178.251 358.877 176.587 361.181 174.368L371.805 185.888C368.648 189.472 364.68 192.245 359.901 194.208C355.122 196.085 349.618 197.024 343.389 197.024ZM432.551 197.024C426.748 197.024 421.671 195.744 417.319 193.184C412.967 190.624 409.554 186.741 407.079 181.536C404.69 176.245 403.495 169.589 403.495 161.568C403.495 153.461 404.647 146.805 406.951 141.6C409.255 136.395 412.583 132.512 416.935 129.952C421.287 127.392 426.492 126.112 432.551 126.112C439.036 126.112 444.839 127.605 449.959 130.592C455.164 133.493 459.26 137.589 462.247 142.88C465.319 148.171 466.855 154.4 466.855 161.568C466.855 168.821 465.319 175.093 462.247 180.384C459.26 185.675 455.164 189.771 449.959 192.672C444.839 195.573 439.036 197.024 432.551 197.024ZM391.847 220.832V127.136H410.919V141.216L410.535 161.696L411.815 182.048V220.832H391.847ZM429.095 180.64C432.423 180.64 435.367 179.872 437.927 178.336C440.572 176.8 442.663 174.624 444.199 171.808C445.82 168.907 446.631 165.493 446.631 161.568C446.631 157.557 445.82 154.144 444.199 151.328C442.663 148.512 440.572 146.336 437.927 144.8C435.367 143.264 432.423 142.496 429.095 142.496C425.767 142.496 422.78 143.264 420.135 144.8C417.49 146.336 415.399 148.512 413.863 151.328C412.327 154.144 411.559 157.557 411.559 161.568C411.559 165.493 412.327 168.907 413.863 171.808C415.399 174.624 417.49 176.8 420.135 178.336C422.78 179.872 425.767 180.64 429.095 180.64ZM514.514 197.024C506.663 197.024 499.751 195.488 493.778 192.416C487.89 189.344 483.325 185.163 480.082 179.872C476.839 174.496 475.218 168.395 475.218 161.568C475.218 154.656 476.797 148.555 479.954 143.264C483.197 137.888 487.591 133.707 493.138 130.72C498.685 127.648 504.957 126.112 511.954 126.112C518.695 126.112 524.754 127.563 530.13 130.464C535.591 133.28 539.901 137.376 543.058 142.752C546.215 148.043 547.794 154.4 547.794 161.824C547.794 162.592 547.751 163.488 547.666 164.512C547.581 165.451 547.495 166.347 547.41 167.2H491.474V155.552H536.914L529.234 159.008C529.234 155.424 528.509 152.309 527.058 149.664C525.607 147.019 523.602 144.971 521.042 143.52C518.482 141.984 515.495 141.216 512.082 141.216C508.669 141.216 505.639 141.984 502.994 143.52C500.434 144.971 498.429 147.061 496.978 149.792C495.527 152.437 494.802 155.595 494.802 159.264V162.336C494.802 166.091 495.613 169.419 497.234 172.32C498.941 175.136 501.287 177.312 504.274 178.848C507.346 180.299 510.93 181.024 515.026 181.024C518.695 181.024 521.895 180.469 524.626 179.36C527.442 178.251 530.002 176.587 532.306 174.368L542.93 185.888C539.773 189.472 535.805 192.245 531.026 194.208C526.247 196.085 520.743 197.024 514.514 197.024ZM604.617 196V173.088L607.433 176.288H588.361C578.462 176.288 570.697 174.24 565.065 170.144C559.433 166.048 556.617 160.16 556.617 152.48C556.617 144.288 559.561 138.016 565.449 133.664C571.422 129.312 579.444 127.136 589.513 127.136H622.409V196H604.617ZM555.593 196L573.897 169.76H594.249L576.841 196H555.593ZM604.617 166.944V138.272L607.433 143.392H589.897C585.801 143.392 582.601 144.16 580.297 145.696C578.078 147.232 576.969 149.707 576.969 153.12C576.969 159.691 581.193 162.976 589.641 162.976H607.433L604.617 166.944Z" fill="white"/>
</svg>
